# xmcd CD database file
#
# Track frame offsets:
#	150
#	41598
#	62345
#	120316
#	173756
#	193917
#	226305
#	254985
#	265596
#	271889
#
# Disc length: 3655 seconds
#
# Revision: 0
# Processed by: cddbd v1.5.2PL0 Copyright (c) Steve Scherf et al.
# Submitted via: CDex 1.51
#
DISCID=870e450a
DTITLE=Mikko Innanen and Innkvisitio - Paa-da-pap
DYEAR=2006
DGENRE=Jazz
TTITLE0=Attac
TTITLE1=The Grey Adler Returns
TTITLE2=Kunf-Aharupa
TTITLE3=Berber
TTITLE4=Anselmus and Serpentina
TTITLE5=Paa-da-pap
TTITLE6=The Original Vasarankylä Stompers' Reunion
TTITLE7=Striptease
TTITLE8=Tiller Waltz
TTITLE9=Busukas
EXTD=YEAR: 2006
EXTT0=
EXTT1=
EXTT2=
EXTT3=
EXTT4=
EXTT5=
EXTT6=
EXTT7=
EXTT8=
EXTT9=
PLAYORDER=
